<svg width="83" height="76" viewBox="0 0 83 76" fill="none" xmlns="http://www.w3.org/2000/svg">
<g clip-path="url(#clip0_468_907)">
<path d="M65.4593 0H17.5407C7.85322 0 0 7.19086 0 16.0613V59.9386C0 68.809 7.85322 76.0001 17.5407 76.0001H65.4593C75.1468 76.0001 83 68.809 83 59.9386V16.0613C83 7.19086 75.1468 0 65.4593 0Z" fill="#0E294C"/>
<path fill-rule="evenodd" clip-rule="evenodd" d="M16.8173 10.8119C16.5559 10.8157 16.3069 10.9143 16.1246 11.0859C15.9424 11.2575 15.8418 11.4882 15.845 11.7276V60.3495C15.7979 60.5086 15.7991 60.6765 15.8486 60.835C15.898 60.9935 15.9938 61.1364 16.1256 61.2487C16.2481 61.3643 16.402 61.4481 16.5716 61.491C16.7411 61.534 16.9201 61.5346 17.09 61.493H70.1903C70.4523 61.493 70.7036 61.3979 70.8889 61.2282C71.0742 61.0585 71.1783 60.8282 71.1783 60.5883C71.1783 60.3483 71.0742 60.1182 70.8889 59.9486C70.7036 59.7789 70.4523 59.6835 70.1903 59.6835H17.8212V11.7276C17.8228 11.6066 17.7979 11.4866 17.748 11.3746C17.698 11.2626 17.6241 11.1609 17.5305 11.0755C17.4369 10.9902 17.3256 10.9229 17.2031 10.8776C17.0806 10.8323 16.9494 10.8099 16.8173 10.8119ZM68.2279 21.7161C66.6035 21.7161 65.2636 22.9411 65.2636 24.4304C65.2636 24.8954 65.4079 25.328 65.6391 25.7134L51.5785 40.0195C51.1958 39.8726 50.7833 39.8023 50.3685 39.8132C49.9537 39.8241 49.5463 39.9159 49.1735 40.0827L43.2251 34.6362C43.4109 34.2834 43.5255 33.8943 43.5255 33.4781C43.5255 31.9889 42.1876 30.7638 40.5612 30.7638C38.9368 30.7638 37.5969 31.9889 37.5969 33.4781C37.5969 33.8382 37.6799 34.1802 37.8222 34.4951L24.1964 45.5892C23.7632 45.3634 23.274 45.2432 22.7755 45.24C21.1511 45.24 19.8112 46.465 19.8112 47.9543C19.8112 49.4417 21.1511 50.6686 22.7755 50.6686C24.4019 50.6686 25.7398 49.4417 25.7398 47.9543C25.7387 47.6046 25.6629 47.2585 25.5165 46.9355L39.1463 35.8432C39.5692 36.0567 40.0474 36.1924 40.5612 36.1924C41.0158 36.1924 41.4426 36.0873 41.828 35.9154L47.7803 41.3658C47.5856 41.7261 47.4822 42.122 47.4779 42.5239C47.4779 44.0132 48.8178 45.2382 50.4422 45.2382C52.0686 45.2382 53.4065 44.0132 53.4065 42.5239C53.4065 42.0589 53.2622 41.6245 53.031 41.239L67.0975 26.9329C67.4473 27.0668 67.8287 27.1448 68.2279 27.1448C69.8543 27.1448 71.1922 25.9178 71.1922 24.4304C71.1922 22.9411 69.8543 21.7161 68.2279 21.7161ZM68.2279 23.5256C68.7852 23.5256 69.216 23.9201 69.216 24.4304C69.216 24.9406 68.7852 25.3352 68.2279 25.3352C68.0976 25.3369 67.9683 25.3147 67.8476 25.2699C67.7269 25.225 67.6172 25.1583 67.5251 25.0739C67.4329 24.9896 67.3602 24.8891 67.3112 24.7786C67.2622 24.6681 67.2379 24.5496 67.2398 24.4304C67.2398 23.9201 67.6706 23.5256 68.2279 23.5256ZM40.5612 32.5733C41.1185 32.5733 41.5493 32.9678 41.5493 33.4781C41.5493 33.9884 41.1185 34.3829 40.5612 34.3829C40.3195 34.3814 40.087 34.2975 39.9091 34.1476C39.8747 34.1054 39.8363 34.066 39.7945 34.0299C39.6762 33.8986 39.6015 33.7391 39.5792 33.5702C39.5569 33.4013 39.588 33.2302 39.6687 33.077C39.7493 32.9237 39.8763 32.7947 40.0345 32.7054C40.1926 32.6162 40.3755 32.5704 40.5612 32.5733ZM50.4422 41.6209C50.9995 41.6209 51.4303 42.0154 51.4303 42.5257C51.4303 43.036 50.9995 43.4305 50.4422 43.4305C50.3119 43.4322 50.1826 43.41 50.0619 43.3651C49.9411 43.3202 49.8315 43.2535 49.7393 43.1692C49.6472 43.0848 49.5745 42.9844 49.5255 42.8738C49.4765 42.7633 49.4522 42.645 49.4541 42.5257C49.4541 42.0154 49.8849 41.6209 50.4422 41.6209ZM22.7755 47.0495C23.0542 47.0495 23.3012 47.1454 23.479 47.3064C23.6569 47.4693 23.7636 47.6991 23.7636 47.9543C23.7636 48.4646 23.3328 48.859 22.7755 48.859C22.6452 48.8608 22.5159 48.8385 22.3952 48.7937C22.2745 48.7488 22.1648 48.6821 22.0727 48.5977C21.9805 48.5134 21.9078 48.4129 21.8588 48.3024C21.8098 48.1919 21.7856 48.0736 21.7874 47.9543C21.7874 47.444 22.2182 47.0495 22.7755 47.0495Z" fill="white"/>
</g>
<defs>
<clipPath id="clip0_468_907">
<rect width="83" height="76" fill="white"/>
</clipPath>
</defs>
</svg>
