<svg width="40" height="36" viewBox="0 0 40 36" fill="none" xmlns="http://www.w3.org/2000/svg">
<path fill-rule="evenodd" clip-rule="evenodd" d="M11.3359 7.12551V4.26768C11.3359 2.46292 12.9279 1 14.8899 1H25.5579C27.5219 1 29.1139 2.46292 29.1139 4.26768V7.12551" fill="#B7094C"/>
<path d="M11.3359 7.12551V4.26768C11.3359 2.46292 12.9279 1 14.8899 1H25.5579C27.5219 1 29.1139 2.46292 29.1139 4.26768V7.12551" stroke="white" stroke-linecap="round"/>
<path d="M35 9.27026H5C2.79086 9.27026 1 10.9159 1 12.9459V31.3243C1 33.3543 2.79086 35 5 35H35C37.2091 35 39 33.3543 39 31.3243V12.9459C39 10.9159 37.2091 9.27026 35 9.27026Z" fill="#B7094C" stroke="white"/>
<path fill-rule="evenodd" clip-rule="evenodd" d="M11 12.946V31.3243V12.946ZM29 12.946V31.3243V12.946Z" fill="#B7094C"/>
<path d="M11 12.946V31.3243M29 12.946V31.3243" stroke="white" stroke-linecap="round"/>
</svg>
