<svg width="85" height="83" viewBox="0 0 85 83" fill="none" xmlns="http://www.w3.org/2000/svg">
<path d="M42.5 0C34.0943 0 25.8774 2.43393 18.8883 6.99401C11.8992 11.5541 6.45186 18.0355 3.23514 25.6186C0.0184145 33.2018 -0.823227 41.546 0.816645 49.5962C2.45652 57.6464 6.50425 65.041 12.448 70.8449C18.3917 76.6488 25.9645 80.6013 34.2087 82.2026C42.4529 83.8039 50.9982 82.982 58.7641 79.841C66.5299 76.6999 73.1675 71.3808 77.8375 64.5562C82.5074 57.7315 85 49.7079 85 41.5C85 30.4935 80.5223 19.9378 72.552 12.1551C64.5817 4.37231 53.7717 0 42.5 0ZM57.6786 44.4643H42.5C41.6949 44.4643 40.9227 44.152 40.3534 43.5961C39.7841 43.0401 39.4643 42.2862 39.4643 41.5V14.8214C39.4643 14.0352 39.7841 13.2813 40.3534 12.7254C40.9227 12.1694 41.6949 11.8571 42.5 11.8571C43.3051 11.8571 44.0773 12.1694 44.6466 12.7254C45.2159 13.2813 45.5357 14.0352 45.5357 14.8214V38.5357H57.6786C58.4837 38.5357 59.2558 38.848 59.8252 39.4039C60.3945 39.9598 60.7143 40.7138 60.7143 41.5C60.7143 42.2862 60.3945 43.0401 59.8252 43.5961C59.2558 44.152 58.4837 44.4643 57.6786 44.4643Z" fill="#0E294C"/>
</svg>
