<svg width="34" height="34" viewBox="0 0 34 34" fill="none" xmlns="http://www.w3.org/2000/svg">
<path d="M26.203 0H13.5992C11.7241 0 10.1992 1.27217 10.1992 2.83333V22.6667C10.1992 24.2292 11.7241 25.5 13.5992 25.5H30.5992C32.4743 25.5 33.9992 24.2292 33.9992 22.6667V6.49683L26.203 0ZM23.7992 8.5V1.41667L32.2992 8.5H23.7992Z" fill="#0E294C"/>
<path d="M8.50156 4.25H5.10156V26.9167C5.10156 28.4792 6.62646 29.75 8.50156 29.75H28.9016V26.9167H8.50156V4.25Z" fill="#0E294C"/>
<path d="M3.4 8.5H0V31.1667C0 32.7292 1.5249 34 3.4 34H23.8V31.1667H3.4V8.5Z" fill="#0E294C"/>
</svg>
