<svg width="92" height="90" viewBox="0 0 92 90" fill="none" xmlns="http://www.w3.org/2000/svg">
<path d="M56.2153 43.3151L47.1374 51.9802L8.80308 88.5661C7.79669 89.5289 6.50566 90.0103 5.21463 90.0103C3.80162 90.0103 2.38861 89.4367 1.36188 88.2998C-0.661062 86.0669 -0.396757 82.5743 1.93116 80.6692L47.1374 43.8272L52.1185 39.7712L56.2153 43.3151Z" fill="#0E294C"/>
<path d="M46.7414 52.4206L37.8058 60.9423L36.9824 52.185L41.8721 48.2007L46.7414 52.4206Z" fill="#0E294C"/>
<path d="M91.9782 29.9078C91.9782 46.4288 78.6817 59.8259 62.2948 59.8259C51.9666 59.8259 42.8684 54.5101 37.5518 46.4391C34.431 41.7071 32.6113 36.0225 32.6113 29.9078C32.6113 13.3868 45.9079 0 62.2948 0C69.6953 0 76.4554 2.72448 81.65 7.23114C87.973 12.7211 91.9782 20.8433 91.9782 29.9078Z" fill="#0E294C"/>
<path d="M62.2946 53.2093C75.0671 53.2093 85.4213 42.7768 85.4213 29.9078C85.4213 17.0387 75.0671 6.60632 62.2946 6.60632C49.5221 6.60632 39.168 17.0387 39.168 29.9078C39.168 42.7768 49.5221 53.2093 62.2946 53.2093Z" fill="white"/>
<path opacity="0.06" d="M91.9772 29.9078C91.9772 46.4288 78.6806 59.8259 62.2938 59.8259C51.9655 59.8259 42.8674 54.5101 37.5508 46.4391C71.026 43.6941 79.8497 15.1178 81.6592 7.23114C87.972 12.7211 91.9772 20.8433 91.9772 29.9078Z" fill="#0E294C" fill-opacity="0.5"/>
</svg>
