<svg class = "fill-blue-500" width="162" height="162" viewBox="0 0 162 162" fill="none" xmlns="http://www.w3.org/2000/svg">
<path d="M159.292 7.89992C158.96 6.63975 158.297 5.49019 157.371 4.56887C156.446 3.64754 155.292 2.98753 154.026 2.65637C138.876 -1.2609 122.923 -0.838325 108.003 3.87544C93.0833 8.5892 79.8039 17.4025 69.6936 29.3007L61.4509 39.0376L42.218 34.4192C37.5409 32.7943 32.4312 32.9097 27.8329 34.7441C23.2346 36.5785 19.4584 40.0079 17.2019 44.3988L0.952843 73.0802C0.383924 74.0845 0.0601307 75.2079 0.00760327 76.3597C-0.0449241 77.5116 0.175286 78.6596 0.650456 79.7111C1.12563 80.7625 1.84244 81.688 2.74303 82.4128C3.64363 83.1376 4.70276 83.6414 5.83494 83.8836L28.5319 88.73C26.6099 94.5569 25.2375 100.55 24.4327 106.63C24.2864 107.746 24.3995 108.881 24.7631 109.947C25.1268 111.013 25.7314 111.982 26.5303 112.778L49.4266 135.576C50.1132 136.26 50.9285 136.802 51.8258 137.172C52.7231 137.542 53.6848 137.732 54.6559 137.731C54.8627 137.731 55.0769 137.724 55.2911 137.702C61.5357 137.143 67.7046 135.935 73.6968 134.098L78.4533 156.19C78.6965 157.317 79.2025 158.372 79.9304 159.269C80.6583 160.165 81.5878 160.879 82.6438 161.352C83.6998 161.825 84.8528 162.045 86.0096 161.992C87.1664 161.94 88.2946 161.618 89.3032 161.051L118.145 144.857C122.206 142.401 125.377 138.724 127.202 134.357C129.028 129.99 129.412 125.158 128.301 120.559L123.367 100.261L132.503 91.8997C144.496 81.8592 153.38 68.6348 158.121 53.7646C162.862 38.8944 163.273 22.9895 159.292 7.89992ZM18.7455 71.5947L30.238 51.2971C30.9532 49.9201 32.17 48.8675 33.6392 48.3548C35.1085 47.8421 36.719 47.9081 38.141 48.5393L50.83 51.5986L46.0291 57.2761C41.4759 62.7072 37.5376 68.6213 34.2855 74.9114L18.7455 71.5947ZM110.848 132.061L90.7952 143.328L87.6192 128.582C94.0512 125.389 100.044 121.385 105.449 116.669L110.937 111.646L113.921 123.883C114.306 125.396 114.219 126.989 113.67 128.451C113.121 129.913 112.136 131.172 110.848 132.061ZM122.776 80.8389L95.5591 105.74C84.7879 115.015 71.5022 120.91 57.3739 122.684L39.6108 105.005C41.9961 90.8993 48.1178 77.6828 57.3444 66.7189L69.7453 52.0619C69.9513 51.8486 70.1438 51.6226 70.3214 51.3853L80.9202 38.8464C88.757 29.6307 98.9098 22.651 110.342 18.6198C121.774 14.5887 134.075 13.6506 145.99 15.9013C148.304 27.8021 147.372 40.1032 143.289 51.523C139.206 62.9429 132.122 73.0712 122.776 80.8389ZM115.959 35.5076C113.768 35.5076 111.626 36.1546 109.804 37.3667C107.982 38.5789 106.562 40.3017 105.723 42.3174C104.885 44.3331 104.666 46.5512 105.093 48.691C105.521 50.8309 106.576 52.7965 108.125 54.3392C109.674 55.882 111.649 56.9326 113.798 57.3583C115.947 57.7839 118.174 57.5654 120.199 56.7305C122.223 55.8956 123.953 54.4817 125.171 52.6676C126.388 50.8535 127.038 48.7207 127.038 46.5389C127.038 43.6132 125.871 40.8074 123.793 38.7386C121.715 36.6698 118.897 35.5076 115.959 35.5076Z" fill="white"/>
</svg>
