<svg width="167" height="146" viewBox="0 0 167 146" fill="none" xmlns="http://www.w3.org/2000/svg">
<path d="M66.7222 105.231V89.0281M66.7222 89.0281V72.8205M66.7222 89.0281L83.5 89.0297M66.7222 89.0281L49.9444 89.0256M159 72.8205V66.3384C159 57.2628 159 52.7248 157.171 49.2584C155.563 46.2092 152.996 43.7301 149.839 42.1765C146.251 40.4102 141.552 40.4102 132.156 40.4102H8M159 72.8205V105.231M159 72.8205H142.222C132.956 72.8205 125.444 80.0755 125.444 89.0256C125.444 97.9757 132.956 105.231 142.222 105.231H159M8 40.4102V111.713C8 120.788 8 125.327 9.82869 128.793C11.4372 131.842 14.0038 134.321 17.1608 135.875C20.7498 137.641 25.448 137.641 34.8444 137.641H132.156C141.552 137.641 146.251 137.641 149.839 135.875C152.996 134.321 155.563 131.842 157.171 128.793C159 125.327 159 120.788 159 111.713V105.231M8 40.4102V33.9282C8 24.8525 8 20.3146 9.82869 16.8482C11.4372 13.7989 14.0038 11.3199 17.1608 9.76628C20.7498 8 25.448 8 34.8444 8H106.989C116.385 8 121.084 8 124.673 9.76628C127.829 11.3199 130.396 13.7989 132.005 16.8482C133.833 20.3146 133.833 24.8525 133.833 33.9282V40.4102" stroke="white" stroke-width="15" stroke-linecap="round" stroke-linejoin="round"/>
</svg>
